<svg id="visual" viewBox="0 0 900 450" width="900" height="450" xmlns="http://www.w3.org/2000/svg" xmlns:xlink="http://www.w3.org/1999/xlink" version="1.1"><g stroke-width="1" stroke-linejoin="bevel"><path d="M414 203L450 130L358 98Z" fill="#2441be" stroke="#2441be"></path><path d="M358 98L299 161L414 203Z" fill="#3744d1" stroke="#3744d1"></path><path d="M480 277L522 107L450 130Z" fill="#00192f" stroke="#00192f"></path><path d="M450 130L425 0L358 98Z" fill="#4b45e4" stroke="#4b45e4"></path><path d="M458 0L425 0L450 130Z" fill="#3744d1" stroke="#3744d1"></path><path d="M358 98L259 36L299 161Z" fill="#002144" stroke="#002144"></path><path d="M425 0L350 0L358 98Z" fill="#033a96" stroke="#033a96"></path><path d="M232 181L253 215L299 161Z" fill="#00306e" stroke="#00306e"></path><path d="M317 310L376 313L414 203Z" fill="#00101c" stroke="#00101c"></path><path d="M376 313L480 277L414 203Z" fill="#002959" stroke="#002959"></path><path d="M414 203L480 277L450 130Z" fill="#4b45e4" stroke="#4b45e4"></path><path d="M522 107L458 0L450 130Z" fill="#00306e" stroke="#00306e"></path><path d="M259 36L232 181L299 161Z" fill="#00306e" stroke="#00306e"></path><path d="M317 310L414 203L299 161Z" fill="#00192f" stroke="#00192f"></path><path d="M350 0L259 36L358 98Z" fill="#3744d1" stroke="#3744d1"></path><path d="M317 310L372 323L376 313Z" fill="#002959" stroke="#002959"></path><path d="M376 313L372 323L480 277Z" fill="#2441be" stroke="#2441be"></path><path d="M253 215L317 310L299 161Z" fill="#4b45e4" stroke="#4b45e4"></path><path d="M253 215L297 326L317 310Z" fill="#033a96" stroke="#033a96"></path><path d="M317 310L297 326L372 323Z" fill="#123eaa" stroke="#123eaa"></path><path d="M160 333L297 326L253 215Z" fill="#00101c" stroke="#00101c"></path><path d="M350 0L223 0L259 36Z" fill="#00306e" stroke="#00306e"></path><path d="M259 36L189 49L232 181Z" fill="#002959" stroke="#002959"></path><path d="M223 0L189 49L259 36Z" fill="#00306e" stroke="#00306e"></path><path d="M480 277L650 125L522 107Z" fill="#00192f" stroke="#00192f"></path><path d="M522 107L635 0L458 0Z" fill="#00192f" stroke="#00192f"></path><path d="M650 125L636 60L522 107Z" fill="#00101c" stroke="#00101c"></path><path d="M67 57L112 134L189 49Z" fill="#4b45e4" stroke="#4b45e4"></path><path d="M189 49L112 134L232 181Z" fill="#00192f" stroke="#00192f"></path><path d="M232 181L160 333L253 215Z" fill="#033a96" stroke="#033a96"></path><path d="M372 323L526 397L480 277Z" fill="#00101c" stroke="#00101c"></path><path d="M480 277L652 324L650 125Z" fill="#00306e" stroke="#00306e"></path><path d="M469 450L526 397L372 323Z" fill="#033a96" stroke="#033a96"></path><path d="M761 33L635 0L636 60Z" fill="#002144" stroke="#002144"></path><path d="M636 60L635 0L522 107Z" fill="#033a96" stroke="#033a96"></path><path d="M120 326L160 333L232 181Z" fill="#4b45e4" stroke="#4b45e4"></path><path d="M340 450L403 450L372 323Z" fill="#123eaa" stroke="#123eaa"></path><path d="M340 450L372 323L297 326Z" fill="#00306e" stroke="#00306e"></path><path d="M155 450L340 450L297 326Z" fill="#00306e" stroke="#00306e"></path><path d="M663 450L602 374L526 397Z" fill="#3744d1" stroke="#3744d1"></path><path d="M526 397L602 374L480 277Z" fill="#00306e" stroke="#00306e"></path><path d="M403 450L469 450L372 323Z" fill="#00192f" stroke="#00192f"></path><path d="M602 374L652 324L480 277Z" fill="#00192f" stroke="#00192f"></path><path d="M112 134L120 326L232 181Z" fill="#00192f" stroke="#00192f"></path><path d="M160 333L155 450L297 326Z" fill="#4b45e4" stroke="#4b45e4"></path><path d="M60 0L67 57L189 49Z" fill="#00101c" stroke="#00101c"></path><path d="M112 134L78 310L120 326Z" fill="#002144" stroke="#002144"></path><path d="M0 176L78 310L112 134Z" fill="#00101c" stroke="#00101c"></path><path d="M111 450L155 450L160 333Z" fill="#2441be" stroke="#2441be"></path><path d="M652 324L749 158L650 125Z" fill="#2441be" stroke="#2441be"></path><path d="M650 125L759 60L636 60Z" fill="#00306e" stroke="#00306e"></path><path d="M223 0L60 0L189 49Z" fill="#002959" stroke="#002959"></path><path d="M0 115L0 176L112 134Z" fill="#00306e" stroke="#00306e"></path><path d="M749 158L756 125L650 125Z" fill="#003582" stroke="#003582"></path><path d="M756 125L759 60L650 125Z" fill="#123eaa" stroke="#123eaa"></path><path d="M111 450L160 333L120 326Z" fill="#2441be" stroke="#2441be"></path><path d="M652 324L739 316L749 158Z" fill="#002144" stroke="#002144"></path><path d="M900 124L759 60L756 125Z" fill="#003582" stroke="#003582"></path><path d="M723 354L739 316L652 324Z" fill="#2441be" stroke="#2441be"></path><path d="M723 354L652 324L663 450Z" fill="#002959" stroke="#002959"></path><path d="M822 0L761 33L759 60Z" fill="#123eaa" stroke="#123eaa"></path><path d="M759 60L761 33L636 60Z" fill="#2441be" stroke="#2441be"></path><path d="M663 450L652 324L602 374Z" fill="#123eaa" stroke="#123eaa"></path><path d="M761 33L755 0L635 0Z" fill="#4b45e4" stroke="#4b45e4"></path><path d="M0 115L112 134L67 57Z" fill="#123eaa" stroke="#123eaa"></path><path d="M78 310L111 450L120 326Z" fill="#033a96" stroke="#033a96"></path><path d="M0 0L0 115L67 57Z" fill="#002959" stroke="#002959"></path><path d="M469 450L663 450L526 397Z" fill="#002959" stroke="#002959"></path><path d="M0 336L111 450L78 310Z" fill="#4b45e4" stroke="#4b45e4"></path><path d="M0 176L0 287L78 310Z" fill="#002959" stroke="#002959"></path><path d="M60 0L0 0L67 57Z" fill="#4b45e4" stroke="#4b45e4"></path><path d="M0 287L0 336L78 310Z" fill="#00192f" stroke="#00192f"></path><path d="M900 124L822 0L759 60Z" fill="#00192f" stroke="#00192f"></path><path d="M761 33L822 0L755 0Z" fill="#033a96" stroke="#033a96"></path><path d="M900 140L756 125L749 158Z" fill="#033a96" stroke="#033a96"></path><path d="M723 354L813 332L739 316Z" fill="#4b45e4" stroke="#4b45e4"></path><path d="M739 316L839 319L749 158Z" fill="#4b45e4" stroke="#4b45e4"></path><path d="M748 450L813 332L723 354Z" fill="#00306e" stroke="#00306e"></path><path d="M663 450L748 450L723 354Z" fill="#00101c" stroke="#00101c"></path><path d="M900 317L839 319L852 450Z" fill="#002144" stroke="#002144"></path><path d="M813 332L839 319L739 316Z" fill="#00192f" stroke="#00192f"></path><path d="M0 336L0 450L111 450Z" fill="#4b45e4" stroke="#4b45e4"></path><path d="M900 217L900 140L749 158Z" fill="#3744d1" stroke="#3744d1"></path><path d="M900 140L900 124L756 125Z" fill="#00192f" stroke="#00192f"></path><path d="M839 319L900 217L749 158Z" fill="#033a96" stroke="#033a96"></path><path d="M900 124L900 0L822 0Z" fill="#002959" stroke="#002959"></path><path d="M852 450L839 319L813 332Z" fill="#00192f" stroke="#00192f"></path><path d="M839 319L900 317L900 217Z" fill="#123eaa" stroke="#123eaa"></path><path d="M748 450L852 450L813 332Z" fill="#2441be" stroke="#2441be"></path><path d="M852 450L900 450L900 317Z" fill="#002144" stroke="#002144"></path></g></svg>