<?xml version="1.0" encoding="utf-8"?><!-- Uploaded to: SVG Repo, www.svgrepo.com, Generator: SVG Repo Mixer Tools -->
<svg fill="#000000" width="800px" height="800px" viewBox="0 0 24 24" id="wallet-money-2" data-name="Flat Color" xmlns="http://www.w3.org/2000/svg" class="icon flat-color"><path id="secondary" d="M10.91,4.06,6.74,10H5.58a1,1,0,0,1-.88-.54,1,1,0,0,1,.06-1l3.51-5A1,1,0,0,1,8.91,3a1,1,0,0,1,.75.16Zm8.66,1.56L14.66,2.18a1,1,0,0,0-1.39.25l-1.55,2.2L8,10h9.25A1,1,0,0,0,18,9.57L19.82,7a1,1,0,0,0-.25-1.39Z" style="fill: rgb(75, 69, 228);"></path><rect id="primary" x="2" y="8" width="19" height="14" rx="2" style="fill: rgb(17,54,71);"></rect><rect id="secondary-2" data-name="secondary" x="16" y="13" width="6" height="4" rx="1" style="fill: rgb(75, 69, 228);"></rect></svg>