<svg id="visual" viewBox="0 0 900 600" width="900" height="600" xmlns="http://www.w3.org/2000/svg" xmlns:xlink="http://www.w3.org/1999/xlink" version="1.1"><g stroke-width="1" stroke-linejoin="bevel"><path d="M442 325.9L420 272L398 334.9Z" fill="#002148" stroke="#002148"></path><path d="M420 272L372 279L398 334.9Z" fill="#002148" stroke="#002148"></path><path d="M383 269.1L372 279L420 272Z" fill="#3843d1" stroke="#3843d1"></path><path d="M418 227.1L381 268L383 269.1Z" fill="#001a35" stroke="#001a35"></path><path d="M383 269.1L381 268L372 279Z" fill="#4b45e4" stroke="#4b45e4"></path><path d="M381 268L365 268.1L372 279Z" fill="#00285c" stroke="#00285c"></path><path d="M372 279L344 311.9L398 334.9Z" fill="#002e70" stroke="#002e70"></path><path d="M335 271L344 311.9L372 279Z" fill="#4b45e4" stroke="#4b45e4"></path><path d="M492 256.1L436 233.3L420 272Z" fill="#153dab" stroke="#153dab"></path><path d="M420 272L418 227.1L383 269.1Z" fill="#002148" stroke="#002148"></path><path d="M381 268L361 207.3L365 268.1Z" fill="#001122" stroke="#001122"></path><path d="M436 233.3L418 227.1L420 272Z" fill="#002148" stroke="#002148"></path><path d="M361 207.3L335 271L365 268.1Z" fill="#002e70" stroke="#002e70"></path><path d="M365 268.1L335 271L372 279Z" fill="#3843d1" stroke="#3843d1"></path><path d="M442 325.9L492 256.1L420 272Z" fill="#00285c" stroke="#00285c"></path><path d="M387 410.7L416 399.6L398 334.9Z" fill="#003484" stroke="#003484"></path><path d="M398 334.9L416 399.6L442 325.9Z" fill="#001a35" stroke="#001a35"></path><path d="M442 325.9L514 271L492 256.1Z" fill="#3843d1" stroke="#3843d1"></path><path d="M526 311.9L514 271L442 325.9Z" fill="#2641be" stroke="#2641be"></path><path d="M364 401.7L387 410.7L398 334.9Z" fill="#063998" stroke="#063998"></path><path d="M344 311.9L364 401.7L398 334.9Z" fill="#001122" stroke="#001122"></path><path d="M431 414.7L465 403.6L416 399.6Z" fill="#00285c" stroke="#00285c"></path><path d="M416 399.6L465 403.6L442 325.9Z" fill="#2641be" stroke="#2641be"></path><path d="M387 410.7L431 414.7L416 399.6Z" fill="#153dab" stroke="#153dab"></path><path d="M524 349.9L526 311.9L442 325.9Z" fill="#4b45e4" stroke="#4b45e4"></path><path d="M399 191.3L361 207.3L418 227.1Z" fill="#002e70" stroke="#002e70"></path><path d="M418 227.1L361 207.3L381 268Z" fill="#2641be" stroke="#2641be"></path><path d="M418 163.4L418 227.1L436 233.3Z" fill="#063998" stroke="#063998"></path><path d="M418 163.4L399 191.3L418 227.1Z" fill="#001122" stroke="#001122"></path><path d="M495 184.3L436 233.3L492 256.1Z" fill="#2641be" stroke="#2641be"></path><path d="M559 261.1L511 239.3L514 271Z" fill="#153dab" stroke="#153dab"></path><path d="M514 271L511 239.3L492 256.1Z" fill="#4b45e4" stroke="#4b45e4"></path><path d="M493 395.7L524 349.9L442 325.9Z" fill="#4b45e4" stroke="#4b45e4"></path><path d="M361 207.3L310 249.1L335 271Z" fill="#4b45e4" stroke="#4b45e4"></path><path d="M335 271L292 276.1L344 311.9Z" fill="#153dab" stroke="#153dab"></path><path d="M297 400.7L342 416.6L364 401.7Z" fill="#002148" stroke="#002148"></path><path d="M463 456.6L493 395.7L465 403.6Z" fill="#003484" stroke="#003484"></path><path d="M465 403.6L493 395.7L442 325.9Z" fill="#00285c" stroke="#00285c"></path><path d="M310 249.1L294 270L335 271Z" fill="#4b45e4" stroke="#4b45e4"></path><path d="M294 270L292 276.1L335 271Z" fill="#002e70" stroke="#002e70"></path><path d="M285 353.9L364 401.7L344 311.9Z" fill="#001122" stroke="#001122"></path><path d="M364 401.7L342 416.6L387 410.7Z" fill="#4b45e4" stroke="#4b45e4"></path><path d="M432 482.3L463 456.6L431 414.7Z" fill="#4b45e4" stroke="#4b45e4"></path><path d="M493 395.7L538 356.7L524 349.9Z" fill="#003484" stroke="#003484"></path><path d="M524 349.9L538 356.7L526 311.9Z" fill="#002148" stroke="#002148"></path><path d="M526 311.9L553 283L514 271Z" fill="#3843d1" stroke="#3843d1"></path><path d="M292 276.1L285 353.9L344 311.9Z" fill="#2641be" stroke="#2641be"></path><path d="M577 318L553 283L526 311.9Z" fill="#003484" stroke="#003484"></path><path d="M468 155.6L418 163.4L436 233.3Z" fill="#001a35" stroke="#001a35"></path><path d="M371 142.6L333 184.4L361 207.3Z" fill="#001122" stroke="#001122"></path><path d="M564 209.3L495 184.3L511 239.3Z" fill="#002148" stroke="#002148"></path><path d="M511 239.3L495 184.3L492 256.1Z" fill="#002148" stroke="#002148"></path><path d="M371 142.6L361 207.3L399 191.3Z" fill="#4b45e4" stroke="#4b45e4"></path><path d="M361 207.3L333 184.4L310 249.1Z" fill="#003484" stroke="#003484"></path><path d="M310 249.1L271 230.3L294 270Z" fill="#063998" stroke="#063998"></path><path d="M598 279L559 261.1L553 283Z" fill="#00285c" stroke="#00285c"></path><path d="M553 283L559 261.1L514 271Z" fill="#063998" stroke="#063998"></path><path d="M285 353.9L297 400.7L364 401.7Z" fill="#001122" stroke="#001122"></path><path d="M490 151.6L483 168.4L495 184.3Z" fill="#00285c" stroke="#00285c"></path><path d="M495 184.3L483 168.4L436 233.3Z" fill="#003484" stroke="#003484"></path><path d="M297 400.7L318 426.6L342 416.6Z" fill="#001122" stroke="#001122"></path><path d="M373 465.4L431 414.7L387 410.7Z" fill="#4b45e4" stroke="#4b45e4"></path><path d="M373 465.4L387 410.7L342 416.6Z" fill="#003484" stroke="#003484"></path><path d="M431 414.7L463 456.6L465 403.6Z" fill="#003484" stroke="#003484"></path><path d="M493 395.7L560 407.6L538 356.7Z" fill="#2641be" stroke="#2641be"></path><path d="M483 168.4L468 155.6L436 233.3Z" fill="#003484" stroke="#003484"></path><path d="M468 155.6L427 146.4L418 163.4Z" fill="#3843d1" stroke="#3843d1"></path><path d="M418 163.4L371 142.6L399 191.3Z" fill="#00285c" stroke="#00285c"></path><path d="M292 198.3L271 230.3L310 249.1Z" fill="#153dab" stroke="#153dab"></path><path d="M294 270L271 230.3L292 276.1Z" fill="#003484" stroke="#003484"></path><path d="M240 351.9L255 361.7L285 353.9Z" fill="#2641be" stroke="#2641be"></path><path d="M596 352.9L577 318L538 356.7Z" fill="#001a35" stroke="#001a35"></path><path d="M538 356.7L577 318L526 311.9Z" fill="#003484" stroke="#003484"></path><path d="M287 187.4L292 198.3L333 184.4Z" fill="#001a35" stroke="#001a35"></path><path d="M333 184.4L292 198.3L310 249.1Z" fill="#3843d1" stroke="#3843d1"></path><path d="M337 472.4L373 465.4L342 416.6Z" fill="#4b45e4" stroke="#4b45e4"></path><path d="M427 146.4L371 142.6L418 163.4Z" fill="#00285c" stroke="#00285c"></path><path d="M240 351.9L285 353.9L227 310Z" fill="#3843d1" stroke="#3843d1"></path><path d="M285 353.9L255 361.7L297 400.7Z" fill="#063998" stroke="#063998"></path><path d="M285 457.4L337 472.4L318 426.6Z" fill="#2641be" stroke="#2641be"></path><path d="M432 482.3L464 468.4L463 456.6Z" fill="#4b45e4" stroke="#4b45e4"></path><path d="M463 456.6L533 429.6L493 395.7Z" fill="#00285c" stroke="#00285c"></path><path d="M483 168.4L490 151.6L468 155.6Z" fill="#2641be" stroke="#2641be"></path><path d="M468 155.6L447 103.7L427 146.4Z" fill="#3843d1" stroke="#3843d1"></path><path d="M561 149.4L490 151.6L495 184.3Z" fill="#002148" stroke="#002148"></path><path d="M464 468.4L533 429.6L463 456.6Z" fill="#003484" stroke="#003484"></path><path d="M371 142.6L322 158.4L333 184.4Z" fill="#153dab" stroke="#153dab"></path><path d="M322 158.4L287 187.4L333 184.4Z" fill="#001a35" stroke="#001a35"></path><path d="M292 198.3L287 187.4L271 230.3Z" fill="#2641be" stroke="#2641be"></path><path d="M533 429.6L560 407.6L493 395.7Z" fill="#00285c" stroke="#00285c"></path><path d="M584 233.1L564 209.3L559 261.1Z" fill="#001a35" stroke="#001a35"></path><path d="M559 261.1L564 209.3L511 239.3Z" fill="#001a35" stroke="#001a35"></path><path d="M373 465.4L432 482.3L431 414.7Z" fill="#153dab" stroke="#153dab"></path><path d="M227 310L285 353.9L292 276.1Z" fill="#002148" stroke="#002148"></path><path d="M285 457.4L318 426.6L297 400.7Z" fill="#3843d1" stroke="#3843d1"></path><path d="M598 279L584 233.1L559 261.1Z" fill="#00285c" stroke="#00285c"></path><path d="M318 426.6L337 472.4L342 416.6Z" fill="#001122" stroke="#001122"></path><path d="M373 465.4L379 493.3L432 482.3Z" fill="#001122" stroke="#001122"></path><path d="M251 408.6L297 400.7L255 361.7Z" fill="#063998" stroke="#063998"></path><path d="M620 319.9L598 279L577 318Z" fill="#063998" stroke="#063998"></path><path d="M577 318L598 279L553 283Z" fill="#002e70" stroke="#002e70"></path><path d="M560 407.6L596 352.9L538 356.7Z" fill="#4b45e4" stroke="#4b45e4"></path><path d="M271 230.3L227 310L292 276.1Z" fill="#001a35" stroke="#001a35"></path><path d="M220 231.1L227 310L271 230.3Z" fill="#002e70" stroke="#002e70"></path><path d="M337 472.4L379 493.3L373 465.4Z" fill="#002e70" stroke="#002e70"></path><path d="M432 482.3L451 495.4L464 468.4Z" fill="#003484" stroke="#003484"></path><path d="M509 516.3L553 490.4L533 429.6Z" fill="#2641be" stroke="#2641be"></path><path d="M429 549.1L451 495.4L432 482.3Z" fill="#001122" stroke="#001122"></path><path d="M200 399.7L251 408.6L240 351.9Z" fill="#001122" stroke="#001122"></path><path d="M240 351.9L251 408.6L255 361.7Z" fill="#00285c" stroke="#00285c"></path><path d="M227 310L219 331.9L240 351.9Z" fill="#153dab" stroke="#153dab"></path><path d="M613 250.1L599 228.3L584 233.1Z" fill="#2641be" stroke="#2641be"></path><path d="M584 233.1L599 228.3L564 209.3Z" fill="#003484" stroke="#003484"></path><path d="M564 209.3L561 149.4L495 184.3Z" fill="#002e70" stroke="#002e70"></path><path d="M509 516.3L471 497.3L500 529.1Z" fill="#00285c" stroke="#00285c"></path><path d="M451 495.4L471 497.3L464 468.4Z" fill="#001a35" stroke="#001a35"></path><path d="M616 462.4L616 397.7L560 407.6Z" fill="#001122" stroke="#001122"></path><path d="M251 408.6L285 457.4L297 400.7Z" fill="#003484" stroke="#003484"></path><path d="M337 472.4L334 502.3L379 493.3Z" fill="#153dab" stroke="#153dab"></path><path d="M466 85.7L447 103.7L490 151.6Z" fill="#001122" stroke="#001122"></path><path d="M490 151.6L447 103.7L468 155.6Z" fill="#001a35" stroke="#001a35"></path><path d="M427 146.4L391 99.6L371 142.6Z" fill="#063998" stroke="#063998"></path><path d="M371 142.6L357 102.7L322 158.4Z" fill="#002148" stroke="#002148"></path><path d="M290 495.3L330 492.4L337 472.4Z" fill="#3843d1" stroke="#3843d1"></path><path d="M500 529.1L471 497.3L429 549.1Z" fill="#063998" stroke="#063998"></path><path d="M638 363.7L620 319.9L596 352.9Z" fill="#063998" stroke="#063998"></path><path d="M596 352.9L620 319.9L577 318Z" fill="#3843d1" stroke="#3843d1"></path><path d="M598 279L613 250.1L584 233.1Z" fill="#001a35" stroke="#001a35"></path><path d="M661 265.1L613 250.1L598 279Z" fill="#3843d1" stroke="#3843d1"></path><path d="M430 87.7L391 99.6L427 146.4Z" fill="#3843d1" stroke="#3843d1"></path><path d="M245 173.4L271 230.3L287 187.4Z" fill="#001a35" stroke="#001a35"></path><path d="M245 173.4L287 187.4L245 141.6Z" fill="#063998" stroke="#063998"></path><path d="M245 173.4L220 231.1L271 230.3Z" fill="#00285c" stroke="#00285c"></path><path d="M227 310L179 282L219 331.9Z" fill="#00285c" stroke="#00285c"></path><path d="M391 99.6L357 102.7L371 142.6Z" fill="#002e70" stroke="#002e70"></path><path d="M290 495.3L334 502.3L330 492.4Z" fill="#153dab" stroke="#153dab"></path><path d="M330 492.4L334 502.3L337 472.4Z" fill="#001a35" stroke="#001a35"></path><path d="M598 173.4L564 209.3L599 228.3Z" fill="#2641be" stroke="#2641be"></path><path d="M598 173.4L561 149.4L564 209.3Z" fill="#3843d1" stroke="#3843d1"></path><path d="M209 421.6L246 438.6L251 408.6Z" fill="#4b45e4" stroke="#4b45e4"></path><path d="M251 408.6L246 438.6L285 457.4Z" fill="#2641be" stroke="#2641be"></path><path d="M285 457.4L290 495.3L337 472.4Z" fill="#3843d1" stroke="#3843d1"></path><path d="M245 141.6L287 187.4L322 158.4Z" fill="#00285c" stroke="#00285c"></path><path d="M447 103.7L430 87.7L427 146.4Z" fill="#003484" stroke="#003484"></path><path d="M333 10.9L308 36.9L357 102.7Z" fill="#002e70" stroke="#002e70"></path><path d="M466 85.7L430 87.7L447 103.7Z" fill="#00285c" stroke="#00285c"></path><path d="M283 93.7L313 111.6L308 36.9Z" fill="#3843d1" stroke="#3843d1"></path><path d="M357 102.7L313 111.6L322 158.4Z" fill="#153dab" stroke="#153dab"></path><path d="M579 491.3L560 407.6L533 429.6Z" fill="#153dab" stroke="#153dab"></path><path d="M560 407.6L616 397.7L596 352.9Z" fill="#00285c" stroke="#00285c"></path><path d="M509 93.7L466 85.7L490 151.6Z" fill="#3843d1" stroke="#3843d1"></path><path d="M635 147.6L598 173.4L667 203.3Z" fill="#063998" stroke="#063998"></path><path d="M555 116.6L509 93.7L490 151.6Z" fill="#153dab" stroke="#153dab"></path><path d="M219 470.4L290 495.3L285 457.4Z" fill="#002148" stroke="#002148"></path><path d="M245 173.4L203 223.3L220 231.1Z" fill="#002148" stroke="#002148"></path><path d="M220 231.1L179 282L227 310Z" fill="#002148" stroke="#002148"></path><path d="M616 397.7L638 363.7L596 352.9Z" fill="#003484" stroke="#003484"></path><path d="M620 319.9L661 265.1L598 279Z" fill="#001a35" stroke="#001a35"></path><path d="M608 141.4L595 156.6L598 173.4Z" fill="#001122" stroke="#001122"></path><path d="M509 516.3L533 429.6L464 468.4Z" fill="#00285c" stroke="#00285c"></path><path d="M471 497.3L451 495.4L429 549.1Z" fill="#00285c" stroke="#00285c"></path><path d="M471 497.3L509 516.3L464 468.4Z" fill="#001a35" stroke="#001a35"></path><path d="M555 116.6L490 151.6L561 149.4Z" fill="#063998" stroke="#063998"></path><path d="M667 203.3L599 228.3L613 250.1Z" fill="#153dab" stroke="#153dab"></path><path d="M598 173.4L595 156.6L561 149.4Z" fill="#001a35" stroke="#001a35"></path><path d="M181 353.7L200 399.7L240 351.9Z" fill="#003484" stroke="#003484"></path><path d="M246 438.6L219 470.4L285 457.4Z" fill="#001a35" stroke="#001a35"></path><path d="M181 353.7L240 351.9L219 331.9Z" fill="#001122" stroke="#001122"></path><path d="M608 141.4L555 116.6L561 149.4Z" fill="#00285c" stroke="#00285c"></path><path d="M313 111.6L245 141.6L322 158.4Z" fill="#001a35" stroke="#001a35"></path><path d="M245 173.4L189 184.3L203 223.3Z" fill="#001122" stroke="#001122"></path><path d="M200 399.7L209 421.6L251 408.6Z" fill="#2641be" stroke="#2641be"></path><path d="M185 246.1L179 282L220 231.1Z" fill="#063998" stroke="#063998"></path><path d="M203 223.3L185 246.1L220 231.1Z" fill="#003484" stroke="#003484"></path><path d="M155 238.1L185 246.1L203 223.3Z" fill="#002148" stroke="#002148"></path><path d="M652 417.6L634 398.6L616 397.7Z" fill="#003484" stroke="#003484"></path><path d="M616 397.7L634 398.6L638 363.7Z" fill="#002148" stroke="#002148"></path><path d="M170 338.9L181 353.7L219 331.9Z" fill="#002148" stroke="#002148"></path><path d="M163 443.6L219 470.4L209 421.6Z" fill="#00285c" stroke="#00285c"></path><path d="M429 549.1L432 482.3L379 493.3Z" fill="#00285c" stroke="#00285c"></path><path d="M546 531.1L579 491.3L553 490.4Z" fill="#00285c" stroke="#00285c"></path><path d="M429 549.1L379 493.3L345 572.1Z" fill="#001122" stroke="#001122"></path><path d="M345 572.1L379 493.3L334 502.3Z" fill="#153dab" stroke="#153dab"></path><path d="M466 85.7L429 58.9L430 87.7Z" fill="#002148" stroke="#002148"></path><path d="M430 87.7L429 58.9L391 99.6Z" fill="#003484" stroke="#003484"></path><path d="M313 111.6L283 93.7L245 141.6Z" fill="#3843d1" stroke="#3843d1"></path><path d="M422 11.9L429 58.9L439 0Z" fill="#2641be" stroke="#2641be"></path><path d="M179 282L170 338.9L219 331.9Z" fill="#153dab" stroke="#153dab"></path><path d="M181 353.7L118 390.7L200 399.7Z" fill="#001122" stroke="#001122"></path><path d="M546 531.1L553 490.4L509 516.3Z" fill="#2641be" stroke="#2641be"></path><path d="M553 490.4L579 491.3L533 429.6Z" fill="#4b45e4" stroke="#4b45e4"></path><path d="M690 330.9L620 319.9L638 363.7Z" fill="#2641be" stroke="#2641be"></path><path d="M693 296L661 265.1L620 319.9Z" fill="#001122" stroke="#001122"></path><path d="M308 36.9L313 111.6L357 102.7Z" fill="#00285c" stroke="#00285c"></path><path d="M477 581.1L509 537.3L500 529.1Z" fill="#00285c" stroke="#00285c"></path><path d="M500 529.1L509 537.3L509 516.3Z" fill="#3843d1" stroke="#3843d1"></path><path d="M586 538.1L587 489.4L579 491.3Z" fill="#00285c" stroke="#00285c"></path><path d="M579 491.3L587 489.4L560 407.6Z" fill="#2641be" stroke="#2641be"></path><path d="M635 147.6L608 141.4L598 173.4Z" fill="#00285c" stroke="#00285c"></path><path d="M595 156.6L608 141.4L561 149.4Z" fill="#001a35" stroke="#001a35"></path><path d="M555 116.6L578 88.7L509 93.7Z" fill="#2641be" stroke="#2641be"></path><path d="M587 489.4L616 462.4L560 407.6Z" fill="#153dab" stroke="#153dab"></path><path d="M209 421.6L219 470.4L246 438.6Z" fill="#4b45e4" stroke="#4b45e4"></path><path d="M287 582.1L345 572.1L334 502.3Z" fill="#3843d1" stroke="#3843d1"></path><path d="M163 443.6L209 421.6L200 399.7Z" fill="#4b45e4" stroke="#4b45e4"></path><path d="M162 195.3L189 184.3L154 159.4Z" fill="#003484" stroke="#003484"></path><path d="M245 141.6L189 184.3L245 173.4Z" fill="#002148" stroke="#002148"></path><path d="M185 246.1L155 238.1L179 282Z" fill="#3843d1" stroke="#3843d1"></path><path d="M179 282L135 287L170 338.9Z" fill="#153dab" stroke="#153dab"></path><path d="M509 537.3L546 531.1L509 516.3Z" fill="#153dab" stroke="#153dab"></path><path d="M656 526.1L673 483.4L616 462.4Z" fill="#003484" stroke="#003484"></path><path d="M616 462.4L652 417.6L616 397.7Z" fill="#002148" stroke="#002148"></path><path d="M634 398.6L695 396.7L638 363.7Z" fill="#003484" stroke="#003484"></path><path d="M162 195.3L155 238.1L203 223.3Z" fill="#002e70" stroke="#002e70"></path><path d="M667 203.3L598 173.4L599 228.3Z" fill="#153dab" stroke="#153dab"></path><path d="M608 141.4L578 88.7L555 116.6Z" fill="#2641be" stroke="#2641be"></path><path d="M467 0L429 58.9L466 85.7Z" fill="#003484" stroke="#003484"></path><path d="M643 109.6L578 88.7L608 141.4Z" fill="#002148" stroke="#002148"></path><path d="M661 265.1L667 203.3L613 250.1Z" fill="#4b45e4" stroke="#4b45e4"></path><path d="M692 191.4L667 203.3L716 257.1Z" fill="#001a35" stroke="#001a35"></path><path d="M342 579.1L345 572.1L287 582.1Z" fill="#3843d1" stroke="#3843d1"></path><path d="M429 549.1L477 581.1L500 529.1Z" fill="#2641be" stroke="#2641be"></path><path d="M509 537.3L538 600L546 531.1Z" fill="#003484" stroke="#003484"></path><path d="M165 134.6L189 184.3L245 141.6Z" fill="#3843d1" stroke="#3843d1"></path><path d="M189 184.3L162 195.3L203 223.3Z" fill="#3843d1" stroke="#3843d1"></path><path d="M695 396.7L690 330.9L638 363.7Z" fill="#063998" stroke="#063998"></path><path d="M295 33.9L243 88.7L283 93.7Z" fill="#001a35" stroke="#001a35"></path><path d="M283 93.7L243 88.7L245 141.6Z" fill="#002148" stroke="#002148"></path><path d="M690 330.9L693 296L620 319.9Z" fill="#2641be" stroke="#2641be"></path><path d="M243 88.7L220 104.6L245 141.6Z" fill="#063998" stroke="#063998"></path><path d="M118 288L135 287L121 242.1Z" fill="#002148" stroke="#002148"></path><path d="M155 238.1L135 287L179 282Z" fill="#063998" stroke="#063998"></path><path d="M170 338.9L133 345.9L181 353.7Z" fill="#3843d1" stroke="#3843d1"></path><path d="M440 600L477 581.1L429 549.1Z" fill="#153dab" stroke="#153dab"></path><path d="M287 582.1L334 502.3L290 495.3Z" fill="#3843d1" stroke="#3843d1"></path><path d="M345 572.1L413 600L429 549.1Z" fill="#3843d1" stroke="#3843d1"></path><path d="M135 287L133 345.9L170 338.9Z" fill="#002e70" stroke="#002e70"></path><path d="M118 390.7L163 443.6L200 399.7Z" fill="#153dab" stroke="#153dab"></path><path d="M301 600L348 600L342 579.1Z" fill="#001a35" stroke="#001a35"></path><path d="M538 600L586 538.1L546 531.1Z" fill="#00285c" stroke="#00285c"></path><path d="M546 531.1L586 538.1L579 491.3Z" fill="#001122" stroke="#001122"></path><path d="M728 429.6L695 396.7L652 417.6Z" fill="#00285c" stroke="#00285c"></path><path d="M333 10.9L357 102.7L385 0Z" fill="#001122" stroke="#001122"></path><path d="M243 88.7L224 70.7L220 104.6Z" fill="#002e70" stroke="#002e70"></path><path d="M514 24.9L466 85.7L509 93.7Z" fill="#001a35" stroke="#001a35"></path><path d="M385 0L357 102.7L391 99.6Z" fill="#002148" stroke="#002148"></path><path d="M348 600L413 600L345 572.1Z" fill="#001122" stroke="#001122"></path><path d="M673 483.4L652 417.6L616 462.4Z" fill="#3843d1" stroke="#3843d1"></path><path d="M652 417.6L695 396.7L634 398.6Z" fill="#00285c" stroke="#00285c"></path><path d="M690 330.9L716 300L693 296Z" fill="#4b45e4" stroke="#4b45e4"></path><path d="M413 600L440 600L429 549.1Z" fill="#00285c" stroke="#00285c"></path><path d="M477 581.1L501 600L509 537.3Z" fill="#063998" stroke="#063998"></path><path d="M329 0L295 33.9L308 36.9Z" fill="#063998" stroke="#063998"></path><path d="M308 36.9L295 33.9L283 93.7Z" fill="#063998" stroke="#063998"></path><path d="M121 242.1L135 287L155 238.1Z" fill="#3843d1" stroke="#3843d1"></path><path d="M135 287L118 288L133 345.9Z" fill="#001122" stroke="#001122"></path><path d="M564 37.9L514 24.9L509 93.7Z" fill="#153dab" stroke="#153dab"></path><path d="M165 134.6L154 159.4L189 184.3Z" fill="#2641be" stroke="#2641be"></path><path d="M120 233.3L121 242.1L155 238.1Z" fill="#3843d1" stroke="#3843d1"></path><path d="M165 134.6L245 141.6L220 104.6Z" fill="#001a35" stroke="#001a35"></path><path d="M716 257.1L667 203.3L661 265.1Z" fill="#4b45e4" stroke="#4b45e4"></path><path d="M667 203.3L692 191.4L635 147.6Z" fill="#3843d1" stroke="#3843d1"></path><path d="M635 147.6L643 109.6L608 141.4Z" fill="#153dab" stroke="#153dab"></path><path d="M578 88.7L564 37.9L509 93.7Z" fill="#4b45e4" stroke="#4b45e4"></path><path d="M716 257.1L661 265.1L693 296Z" fill="#001a35" stroke="#001a35"></path><path d="M120 233.3L155 238.1L162 195.3Z" fill="#001a35" stroke="#001a35"></path><path d="M697 113.7L643 109.6L635 147.6Z" fill="#002e70" stroke="#002e70"></path><path d="M721 371.9L716 300L690 330.9Z" fill="#003484" stroke="#003484"></path><path d="M287 582.1L290 495.3L203 529.3Z" fill="#002148" stroke="#002148"></path><path d="M342 579.1L348 600L345 572.1Z" fill="#2641be" stroke="#2641be"></path><path d="M228 47.9L224 70.7L243 88.7Z" fill="#4b45e4" stroke="#4b45e4"></path><path d="M194 95.7L165 134.6L220 104.6Z" fill="#003484" stroke="#003484"></path><path d="M98 194.4L120 233.3L162 195.3Z" fill="#002148" stroke="#002148"></path><path d="M121 242.1L51 250.1L118 288Z" fill="#003484" stroke="#003484"></path><path d="M144 154.4L162 195.3L154 159.4Z" fill="#00285c" stroke="#00285c"></path><path d="M224 70.7L194 95.7L220 104.6Z" fill="#002e70" stroke="#002e70"></path><path d="M203 529.3L290 495.3L219 470.4Z" fill="#002148" stroke="#002148"></path><path d="M716 300L716 257.1L693 296Z" fill="#002148" stroke="#002148"></path><path d="M439 0L426 0L422 11.9Z" fill="#3843d1" stroke="#3843d1"></path><path d="M385 0L391 99.6L429 58.9Z" fill="#002148" stroke="#002148"></path><path d="M385 0L429 58.9L422 11.9Z" fill="#153dab" stroke="#153dab"></path><path d="M295 33.9L228 47.9L243 88.7Z" fill="#002e70" stroke="#002e70"></path><path d="M636 65.7L564 37.9L578 88.7Z" fill="#001122" stroke="#001122"></path><path d="M467 0L439 0L429 58.9Z" fill="#3843d1" stroke="#3843d1"></path><path d="M467 0L466 85.7L514 24.9Z" fill="#003484" stroke="#003484"></path><path d="M440 600L501 600L477 581.1Z" fill="#00285c" stroke="#00285c"></path><path d="M426 0L385 0L422 11.9Z" fill="#2641be" stroke="#2641be"></path><path d="M144 489.3L169 489.4L163 443.6Z" fill="#00285c" stroke="#00285c"></path><path d="M163 443.6L169 489.4L219 470.4Z" fill="#00285c" stroke="#00285c"></path><path d="M118 390.7L181 353.7L133 345.9Z" fill="#001a35" stroke="#001a35"></path><path d="M169 489.4L203 529.3L219 470.4Z" fill="#001a35" stroke="#001a35"></path><path d="M70 372.7L118 390.7L133 345.9Z" fill="#4b45e4" stroke="#4b45e4"></path><path d="M116 66.7L151 143.6L165 134.6Z" fill="#2641be" stroke="#2641be"></path><path d="M165 134.6L151 143.6L154 159.4Z" fill="#001a35" stroke="#001a35"></path><path d="M571 0L467 0L514 24.9Z" fill="#002e70" stroke="#002e70"></path><path d="M151 143.6L144 154.4L154 159.4Z" fill="#002e70" stroke="#002e70"></path><path d="M733 410.6L721 371.9L695 396.7Z" fill="#063998" stroke="#063998"></path><path d="M695 396.7L721 371.9L690 330.9Z" fill="#063998" stroke="#063998"></path><path d="M716 300L736 246.1L716 257.1Z" fill="#001122" stroke="#001122"></path><path d="M634 535.3L587 489.4L586 538.1Z" fill="#001122" stroke="#001122"></path><path d="M634 535.3L616 462.4L587 489.4Z" fill="#002148" stroke="#002148"></path><path d="M250 600L301 600L287 582.1Z" fill="#00285c" stroke="#00285c"></path><path d="M287 582.1L301 600L342 579.1Z" fill="#00285c" stroke="#00285c"></path><path d="M169 489.4L193 531.3L203 529.3Z" fill="#001122" stroke="#001122"></path><path d="M203 529.3L236 588.1L287 582.1Z" fill="#3843d1" stroke="#3843d1"></path><path d="M385 0L329 0L333 10.9Z" fill="#00285c" stroke="#00285c"></path><path d="M333 10.9L329 0L308 36.9Z" fill="#001a35" stroke="#001a35"></path><path d="M644 572.1L634 535.3L586 538.1Z" fill="#003484" stroke="#003484"></path><path d="M224 70.7L181 67.9L194 95.7Z" fill="#153dab" stroke="#153dab"></path><path d="M194 95.7L181 67.9L165 134.6Z" fill="#002148" stroke="#002148"></path><path d="M272 0L228 47.9L295 33.9Z" fill="#4b45e4" stroke="#4b45e4"></path><path d="M118 390.7L116 415.6L163 443.6Z" fill="#063998" stroke="#063998"></path><path d="M169 489.4L144 489.3L193 531.3Z" fill="#003484" stroke="#003484"></path><path d="M109 415.7L116 415.6L118 390.7Z" fill="#001122" stroke="#001122"></path><path d="M501 600L538 600L509 537.3Z" fill="#002148" stroke="#002148"></path><path d="M70 372.7L109 415.7L118 390.7Z" fill="#063998" stroke="#063998"></path><path d="M121 471.4L144 489.3L163 443.6Z" fill="#3843d1" stroke="#3843d1"></path><path d="M100 441.4L109 415.7L37 430.6Z" fill="#001a35" stroke="#001a35"></path><path d="M643 109.6L636 65.7L578 88.7Z" fill="#003484" stroke="#003484"></path><path d="M564 37.9L571 0L514 24.9Z" fill="#4b45e4" stroke="#4b45e4"></path><path d="M667 50.9L636 65.7L643 109.6Z" fill="#063998" stroke="#063998"></path><path d="M786 259.1L736 246.1L716 300Z" fill="#153dab" stroke="#153dab"></path><path d="M716 257.1L725 199.3L692 191.4Z" fill="#001a35" stroke="#001a35"></path><path d="M692 191.4L697 113.7L635 147.6Z" fill="#3843d1" stroke="#3843d1"></path><path d="M644 572.1L656 526.1L634 535.3Z" fill="#002148" stroke="#002148"></path><path d="M634 535.3L656 526.1L616 462.4Z" fill="#001122" stroke="#001122"></path><path d="M728 429.6L733 410.6L695 396.7Z" fill="#3843d1" stroke="#3843d1"></path><path d="M121 471.4L163 443.6L116 415.6Z" fill="#2641be" stroke="#2641be"></path><path d="M736 246.1L725 199.3L716 257.1Z" fill="#3843d1" stroke="#3843d1"></path><path d="M773 224.3L726 192.4L725 199.3Z" fill="#2641be" stroke="#2641be"></path><path d="M725 199.3L726 192.4L692 191.4Z" fill="#001a35" stroke="#001a35"></path><path d="M190 0L181 67.9L228 47.9Z" fill="#003484" stroke="#003484"></path><path d="M228 47.9L181 67.9L224 70.7Z" fill="#3843d1" stroke="#3843d1"></path><path d="M88 103.6L98 194.4L144 154.4Z" fill="#002148" stroke="#002148"></path><path d="M201 585.1L203 529.3L193 531.3Z" fill="#063998" stroke="#063998"></path><path d="M201 585.1L236 588.1L203 529.3Z" fill="#063998" stroke="#063998"></path><path d="M728 429.6L652 417.6L673 483.4Z" fill="#001122" stroke="#001122"></path><path d="M721 371.9L776 323.9L716 300Z" fill="#001a35" stroke="#001a35"></path><path d="M88 103.6L144 154.4L151 143.6Z" fill="#003484" stroke="#003484"></path><path d="M144 154.4L98 194.4L162 195.3Z" fill="#2641be" stroke="#2641be"></path><path d="M120 233.3L51 250.1L121 242.1Z" fill="#003484" stroke="#003484"></path><path d="M711 483.3L728 429.6L673 483.4Z" fill="#2641be" stroke="#2641be"></path><path d="M329 0L272 0L295 33.9Z" fill="#001a35" stroke="#001a35"></path><path d="M100 441.4L121 471.4L116 415.6Z" fill="#3843d1" stroke="#3843d1"></path><path d="M175 600L201 585.1L193 531.3Z" fill="#2641be" stroke="#2641be"></path><path d="M236 588.1L250 600L287 582.1Z" fill="#063998" stroke="#063998"></path><path d="M726 192.4L697 113.7L692 191.4Z" fill="#4b45e4" stroke="#4b45e4"></path><path d="M538 600L588 600L586 538.1Z" fill="#153dab" stroke="#153dab"></path><path d="M70 372.7L133 345.9L64 364.9Z" fill="#003484" stroke="#003484"></path><path d="M109 415.7L100 441.4L116 415.6Z" fill="#3843d1" stroke="#3843d1"></path><path d="M607 15.9L564 37.9L636 65.7Z" fill="#4b45e4" stroke="#4b45e4"></path><path d="M607 15.9L571 0L564 37.9Z" fill="#2641be" stroke="#2641be"></path><path d="M686 538.3L711 483.3L673 483.4Z" fill="#3843d1" stroke="#3843d1"></path><path d="M686 538.3L673 483.4L656 526.1Z" fill="#001a35" stroke="#001a35"></path><path d="M613 11.9L607 15.9L636 65.7Z" fill="#063998" stroke="#063998"></path><path d="M272 0L247 0L228 47.9Z" fill="#3843d1" stroke="#3843d1"></path><path d="M64 364.9L133 345.9L118 288Z" fill="#4b45e4" stroke="#4b45e4"></path><path d="M588 600L644 572.1L586 538.1Z" fill="#063998" stroke="#063998"></path><path d="M202 600L201 585.1L175 600Z" fill="#2641be" stroke="#2641be"></path><path d="M236 588.1L202 600L250 600Z" fill="#001a35" stroke="#001a35"></path><path d="M740 476.4L750 414.7L728 429.6Z" fill="#00285c" stroke="#00285c"></path><path d="M728 429.6L750 414.7L733 410.6Z" fill="#001a35" stroke="#001a35"></path><path d="M733 410.6L759 400.7L721 371.9Z" fill="#003484" stroke="#003484"></path><path d="M667 50.9L613 11.9L636 65.7Z" fill="#153dab" stroke="#153dab"></path><path d="M607 15.9L599 0L571 0Z" fill="#001122" stroke="#001122"></path><path d="M57 361.9L64 364.9L118 288Z" fill="#153dab" stroke="#153dab"></path><path d="M70 372.7L37 430.6L109 415.7Z" fill="#00285c" stroke="#00285c"></path><path d="M613 11.9L599 0L607 15.9Z" fill="#002e70" stroke="#002e70"></path><path d="M813 368.9L759 400.7L793 452.4Z" fill="#001a35" stroke="#001a35"></path><path d="M750 414.7L759 400.7L733 410.6Z" fill="#00285c" stroke="#00285c"></path><path d="M644 572.1L686 538.3L656 526.1Z" fill="#003484" stroke="#003484"></path><path d="M711 483.3L740 476.4L728 429.6Z" fill="#00285c" stroke="#00285c"></path><path d="M697 113.7L667 50.9L643 109.6Z" fill="#003484" stroke="#003484"></path><path d="M613 11.9L657 0L599 0Z" fill="#00285c" stroke="#00285c"></path><path d="M759 400.7L776 323.9L721 371.9Z" fill="#063998" stroke="#063998"></path><path d="M736 246.1L773 224.3L725 199.3Z" fill="#2641be" stroke="#2641be"></path><path d="M739 117.6L715 103.6L697 113.7Z" fill="#3843d1" stroke="#3843d1"></path><path d="M739 117.6L697 113.7L726 192.4Z" fill="#001a35" stroke="#001a35"></path><path d="M697 113.7L715 103.6L667 50.9Z" fill="#002e70" stroke="#002e70"></path><path d="M30 327L57 361.9L118 288Z" fill="#153dab" stroke="#153dab"></path><path d="M64 364.9L57 361.9L70 372.7Z" fill="#002148" stroke="#002148"></path><path d="M125 546.1L193 531.3L144 489.3Z" fill="#4b45e4" stroke="#4b45e4"></path><path d="M201 585.1L202 600L236 588.1Z" fill="#002e70" stroke="#002e70"></path><path d="M125 546.1L144 489.3L121 471.4Z" fill="#153dab" stroke="#153dab"></path><path d="M786 259.1L773 224.3L736 246.1Z" fill="#002148" stroke="#002148"></path><path d="M737 568.1L740 476.4L711 483.3Z" fill="#003484" stroke="#003484"></path><path d="M32 215.3L51 250.1L98 194.4Z" fill="#4b45e4" stroke="#4b45e4"></path><path d="M98 194.4L51 250.1L120 233.3Z" fill="#3843d1" stroke="#3843d1"></path><path d="M644 572.1L693 600L686 538.3Z" fill="#002148" stroke="#002148"></path><path d="M686 538.3L737 568.1L711 483.3Z" fill="#003484" stroke="#003484"></path><path d="M588 600L640 600L644 572.1Z" fill="#063998" stroke="#063998"></path><path d="M776 323.9L786 259.1L716 300Z" fill="#001a35" stroke="#001a35"></path><path d="M783 167.4L739 117.6L726 192.4Z" fill="#001a35" stroke="#001a35"></path><path d="M660 0L657 0L667 50.9Z" fill="#153dab" stroke="#153dab"></path><path d="M783 167.4L726 192.4L773 224.3Z" fill="#002e70" stroke="#002e70"></path><path d="M105 563.1L125 546.1L59 507.3Z" fill="#3843d1" stroke="#3843d1"></path><path d="M59 507.3L121 471.4L100 441.4Z" fill="#002148" stroke="#002148"></path><path d="M813 368.9L793 324L776 323.9Z" fill="#00285c" stroke="#00285c"></path><path d="M776 323.9L793 324L786 259.1Z" fill="#2641be" stroke="#2641be"></path><path d="M813 368.9L776 323.9L759 400.7Z" fill="#001122" stroke="#001122"></path><path d="M247 0L190 0L228 47.9Z" fill="#002e70" stroke="#002e70"></path><path d="M181 67.9L116 66.7L165 134.6Z" fill="#001122" stroke="#001122"></path><path d="M125 546.1L175 600L193 531.3Z" fill="#002148" stroke="#002148"></path><path d="M110 49.9L116 66.7L181 67.9Z" fill="#002148" stroke="#002148"></path><path d="M116 66.7L88 103.6L151 143.6Z" fill="#153dab" stroke="#153dab"></path><path d="M51 250.1L30 327L118 288Z" fill="#00285c" stroke="#00285c"></path><path d="M57 361.9L37 430.6L70 372.7Z" fill="#002e70" stroke="#002e70"></path><path d="M0 303L30 327L51 250.1Z" fill="#003484" stroke="#003484"></path><path d="M660 0L667 50.9L716 53.9Z" fill="#2641be" stroke="#2641be"></path><path d="M667 50.9L657 0L613 11.9Z" fill="#002148" stroke="#002148"></path><path d="M716 53.9L667 50.9L715 103.6Z" fill="#3843d1" stroke="#3843d1"></path><path d="M718 53.7L716 53.9L715 103.6Z" fill="#002e70" stroke="#002e70"></path><path d="M792 159.4L783 167.4L834 215.3Z" fill="#002148" stroke="#002148"></path><path d="M767 81.7L718 53.7L715 103.6Z" fill="#002e70" stroke="#002e70"></path><path d="M783 167.4L773 224.3L834 215.3Z" fill="#00285c" stroke="#00285c"></path><path d="M22 150.4L32 215.3L98 194.4Z" fill="#3843d1" stroke="#3843d1"></path><path d="M767 81.7L715 103.6L739 117.6Z" fill="#4b45e4" stroke="#4b45e4"></path><path d="M716 53.9L743 0L660 0Z" fill="#2641be" stroke="#2641be"></path><path d="M107 20.9L110 49.9L123 0Z" fill="#063998" stroke="#063998"></path><path d="M116 66.7L60 66.7L88 103.6Z" fill="#002148" stroke="#002148"></path><path d="M88 103.6L60 102.6L98 194.4Z" fill="#3843d1" stroke="#3843d1"></path><path d="M0 387.7L37 430.6L57 361.9Z" fill="#4b45e4" stroke="#4b45e4"></path><path d="M105 563.1L144 600L125 546.1Z" fill="#003484" stroke="#003484"></path><path d="M125 546.1L144 600L175 600Z" fill="#002e70" stroke="#002e70"></path><path d="M59 507.3L125 546.1L121 471.4Z" fill="#3843d1" stroke="#3843d1"></path><path d="M793 452.4L759 400.7L750 414.7Z" fill="#001122" stroke="#001122"></path><path d="M793 324L825 283L786 259.1Z" fill="#001a35" stroke="#001a35"></path><path d="M820 232.3L773 224.3L786 259.1Z" fill="#063998" stroke="#063998"></path><path d="M783 167.4L793 143.6L739 117.6Z" fill="#002148" stroke="#002148"></path><path d="M640 600L693 600L644 572.1Z" fill="#063998" stroke="#063998"></path><path d="M740 476.4L793 452.4L750 414.7Z" fill="#063998" stroke="#063998"></path><path d="M0 440.4L33 440.4L37 430.6Z" fill="#2641be" stroke="#2641be"></path><path d="M37 430.6L33 440.4L100 441.4Z" fill="#00285c" stroke="#00285c"></path><path d="M796 535.3L793 452.4L740 476.4Z" fill="#003484" stroke="#003484"></path><path d="M60 66.7L60 102.6L88 103.6Z" fill="#00285c" stroke="#00285c"></path><path d="M33 440.4L59 507.3L100 441.4Z" fill="#002e70" stroke="#002e70"></path><path d="M829 285L825 283L831 327.9Z" fill="#063998" stroke="#063998"></path><path d="M850 154.4L793 143.6L792 159.4Z" fill="#2641be" stroke="#2641be"></path><path d="M792 159.4L793 143.6L783 167.4Z" fill="#153dab" stroke="#153dab"></path><path d="M825 283L820 232.3L786 259.1Z" fill="#003484" stroke="#003484"></path><path d="M831 327.9L825 283L793 324Z" fill="#003484" stroke="#003484"></path><path d="M825 283L851 226.1L820 232.3Z" fill="#001a35" stroke="#001a35"></path><path d="M0 244.1L51 250.1L32 215.3Z" fill="#001122" stroke="#001122"></path><path d="M0 244.1L0 303L51 250.1Z" fill="#001122" stroke="#001122"></path><path d="M30 327L0 352.9L57 361.9Z" fill="#002148" stroke="#002148"></path><path d="M693 600L737 568.1L686 538.3Z" fill="#002148" stroke="#002148"></path><path d="M832 357.7L831 327.9L813 368.9Z" fill="#001a35" stroke="#001a35"></path><path d="M813 368.9L831 327.9L793 324Z" fill="#002e70" stroke="#002e70"></path><path d="M793 143.6L767 81.7L739 117.6Z" fill="#4b45e4" stroke="#4b45e4"></path><path d="M718 53.7L743 0L716 53.9Z" fill="#4b45e4" stroke="#4b45e4"></path><path d="M0 303L0 352.9L30 327Z" fill="#4b45e4" stroke="#4b45e4"></path><path d="M123 0L110 49.9L181 67.9Z" fill="#002e70" stroke="#002e70"></path><path d="M110 49.9L60 66.7L116 66.7Z" fill="#4b45e4" stroke="#4b45e4"></path><path d="M0 225.3L0 244.1L32 215.3Z" fill="#002e70" stroke="#002e70"></path><path d="M840 448.6L832 357.7L813 368.9Z" fill="#00285c" stroke="#00285c"></path><path d="M0 100.6L22 150.4L60 102.6Z" fill="#003484" stroke="#003484"></path><path d="M60 102.6L22 150.4L98 194.4Z" fill="#001122" stroke="#001122"></path><path d="M190 0L123 0L181 67.9Z" fill="#00285c" stroke="#00285c"></path><path d="M0 197.4L0 225.3L32 215.3Z" fill="#4b45e4" stroke="#4b45e4"></path><path d="M0 352.9L0 387.7L57 361.9Z" fill="#001a35" stroke="#001a35"></path><path d="M16 533.1L49 529.3L59 507.3Z" fill="#001a35" stroke="#001a35"></path><path d="M71 12.9L60 66.7L110 49.9Z" fill="#3843d1" stroke="#3843d1"></path><path d="M71 12.9L110 49.9L107 20.9Z" fill="#002148" stroke="#002148"></path><path d="M851 226.1L825 283L829 285Z" fill="#4b45e4" stroke="#4b45e4"></path><path d="M851 226.1L834 215.3L820 232.3Z" fill="#003484" stroke="#003484"></path><path d="M820 232.3L834 215.3L773 224.3Z" fill="#063998" stroke="#063998"></path><path d="M811 107.7L767 50.9L767 81.7Z" fill="#002148" stroke="#002148"></path><path d="M851 226.1L829 285L900 274.1Z" fill="#001122" stroke="#001122"></path><path d="M22 150.4L0 197.4L32 215.3Z" fill="#4b45e4" stroke="#4b45e4"></path><path d="M0 100.6L0 197.4L22 150.4Z" fill="#00285c" stroke="#00285c"></path><path d="M0 503.3L59 507.3L33 440.4Z" fill="#003484" stroke="#003484"></path><path d="M59 507.3L49 529.3L105 563.1Z" fill="#001a35" stroke="#001a35"></path><path d="M105 563.1L95 600L144 600Z" fill="#4b45e4" stroke="#4b45e4"></path><path d="M123 0L110 0L107 20.9Z" fill="#2641be" stroke="#2641be"></path><path d="M0 42.9L49 73.7L60 66.7Z" fill="#001a35" stroke="#001a35"></path><path d="M60 66.7L49 73.7L60 102.6Z" fill="#003484" stroke="#003484"></path><path d="M811 107.7L767 81.7L793 143.6Z" fill="#001122" stroke="#001122"></path><path d="M767 81.7L767 50.9L718 53.7Z" fill="#002e70" stroke="#002e70"></path><path d="M42 600L95 600L105 563.1Z" fill="#3843d1" stroke="#3843d1"></path><path d="M0 387.7L0 440.4L37 430.6Z" fill="#001a35" stroke="#001a35"></path><path d="M737 568.1L783 542.3L740 476.4Z" fill="#001122" stroke="#001122"></path><path d="M793 452.4L840 448.6L813 368.9Z" fill="#003484" stroke="#003484"></path><path d="M781 557.1L783 542.3L737 568.1Z" fill="#3843d1" stroke="#3843d1"></path><path d="M693 600L739 600L737 568.1Z" fill="#001a35" stroke="#001a35"></path><path d="M0 440.4L0 448.6L33 440.4Z" fill="#063998" stroke="#063998"></path><path d="M850 154.4L811 107.7L793 143.6Z" fill="#153dab" stroke="#153dab"></path><path d="M900 292L829 285L831 327.9Z" fill="#001122" stroke="#001122"></path><path d="M834 215.3L850 154.4L792 159.4Z" fill="#3843d1" stroke="#3843d1"></path><path d="M756 600L781 557.1L737 568.1Z" fill="#00285c" stroke="#00285c"></path><path d="M783 542.3L796 535.3L740 476.4Z" fill="#00285c" stroke="#00285c"></path><path d="M781 557.1L796 535.3L783 542.3Z" fill="#063998" stroke="#063998"></path><path d="M770 0L743 0L767 50.9Z" fill="#063998" stroke="#063998"></path><path d="M767 50.9L743 0L718 53.7Z" fill="#002e70" stroke="#002e70"></path><path d="M824 501.4L840 448.6L793 452.4Z" fill="#001122" stroke="#001122"></path><path d="M832 357.7L878 355.7L831 327.9Z" fill="#063998" stroke="#063998"></path><path d="M739 600L756 600L737 568.1Z" fill="#063998" stroke="#063998"></path><path d="M884 514.3L824 501.4L851 580.1Z" fill="#002148" stroke="#002148"></path><path d="M110 0L71 12.9L107 20.9Z" fill="#4b45e4" stroke="#4b45e4"></path><path d="M49 73.7L0 100.6L60 102.6Z" fill="#063998" stroke="#063998"></path><path d="M800 584.1L796 535.3L781 557.1Z" fill="#003484" stroke="#003484"></path><path d="M796 535.3L824 501.4L793 452.4Z" fill="#063998" stroke="#063998"></path><path d="M0 503.3L16 533.1L59 507.3Z" fill="#153dab" stroke="#153dab"></path><path d="M49 529.3L42 600L105 563.1Z" fill="#3843d1" stroke="#3843d1"></path><path d="M0 448.6L0 503.3L33 440.4Z" fill="#00285c" stroke="#00285c"></path><path d="M851 226.1L850 154.4L834 215.3Z" fill="#2641be" stroke="#2641be"></path><path d="M851 37.9L827 10.9L767 50.9Z" fill="#153dab" stroke="#153dab"></path><path d="M0 68.7L0 100.6L49 73.7Z" fill="#002148" stroke="#002148"></path><path d="M850 154.4L835 104.6L811 107.7Z" fill="#2641be" stroke="#2641be"></path><path d="M900 318.9L878 355.7L900 388.7Z" fill="#002148" stroke="#002148"></path><path d="M900 388.7L878 355.7L832 357.7Z" fill="#063998" stroke="#063998"></path><path d="M851 226.1L900 187.4L850 154.4Z" fill="#001122" stroke="#001122"></path><path d="M811 0L770 0L767 50.9Z" fill="#153dab" stroke="#153dab"></path><path d="M0 564.1L49 529.3L16 533.1Z" fill="#2641be" stroke="#2641be"></path><path d="M0 564.1L42 600L49 529.3Z" fill="#00285c" stroke="#00285c"></path><path d="M756 600L800 584.1L781 557.1Z" fill="#153dab" stroke="#153dab"></path><path d="M900 388.7L832 357.7L840 448.6Z" fill="#063998" stroke="#063998"></path><path d="M0 42.9L0 68.7L49 73.7Z" fill="#4b45e4" stroke="#4b45e4"></path><path d="M110 0L41 0L71 12.9Z" fill="#002e70" stroke="#002e70"></path><path d="M71 12.9L41 0L60 66.7Z" fill="#002148" stroke="#002148"></path><path d="M870 478.4L840 448.6L824 501.4Z" fill="#001a35" stroke="#001a35"></path><path d="M878 355.7L900 318.9L831 327.9Z" fill="#2641be" stroke="#2641be"></path><path d="M850 154.4L900 108.7L835 104.6Z" fill="#153dab" stroke="#153dab"></path><path d="M900 318.9L900 292L831 327.9Z" fill="#00285c" stroke="#00285c"></path><path d="M900 292L900 274.1L829 285Z" fill="#003484" stroke="#003484"></path><path d="M884 514.3L870 478.4L824 501.4Z" fill="#063998" stroke="#063998"></path><path d="M0 503.3L0 564.1L16 533.1Z" fill="#3843d1" stroke="#3843d1"></path><path d="M41 0L0 42.9L60 66.7Z" fill="#063998" stroke="#063998"></path><path d="M870 478.4L883 457.6L840 448.6Z" fill="#153dab" stroke="#153dab"></path><path d="M883 457.6L900 388.7L840 448.6Z" fill="#001a35" stroke="#001a35"></path><path d="M900 274.1L900 200.3L851 226.1Z" fill="#003484" stroke="#003484"></path><path d="M827 10.9L811 0L767 50.9Z" fill="#153dab" stroke="#153dab"></path><path d="M900 200.3L900 187.4L851 226.1Z" fill="#153dab" stroke="#153dab"></path><path d="M767 50.9L811 107.7L851 37.9Z" fill="#4b45e4" stroke="#4b45e4"></path><path d="M851 37.9L811 107.7L835 104.6Z" fill="#063998" stroke="#063998"></path><path d="M900 455.4L900 453.6L883 457.6Z" fill="#002e70" stroke="#002e70"></path><path d="M883 457.6L900 453.6L900 388.7Z" fill="#002148" stroke="#002148"></path><path d="M900 455.4L883 457.6L870 478.4Z" fill="#002148" stroke="#002148"></path><path d="M884 514.3L900 455.4L870 478.4Z" fill="#153dab" stroke="#153dab"></path><path d="M0 564.1L0 600L42 600Z" fill="#3843d1" stroke="#3843d1"></path><path d="M756 600L830 600L800 584.1Z" fill="#4b45e4" stroke="#4b45e4"></path><path d="M800 584.1L851 580.1L796 535.3Z" fill="#003484" stroke="#003484"></path><path d="M900 187.4L900 144.6L850 154.4Z" fill="#002148" stroke="#002148"></path><path d="M880 65.7L851 37.9L835 104.6Z" fill="#3843d1" stroke="#3843d1"></path><path d="M851 580.1L824 501.4L796 535.3Z" fill="#001a35" stroke="#001a35"></path><path d="M41 0L0 0L0 42.9Z" fill="#001a35" stroke="#001a35"></path><path d="M830 600L851 580.1L800 584.1Z" fill="#063998" stroke="#063998"></path><path d="M900 108.7L880 65.7L835 104.6Z" fill="#001a35" stroke="#001a35"></path><path d="M851 37.9L881 0L827 10.9Z" fill="#002e70" stroke="#002e70"></path><path d="M900 144.6L900 108.7L850 154.4Z" fill="#4b45e4" stroke="#4b45e4"></path><path d="M900 577.1L900 536.3L851 580.1Z" fill="#2641be" stroke="#2641be"></path><path d="M851 580.1L900 536.3L884 514.3Z" fill="#063998" stroke="#063998"></path><path d="M884 514.3L900 536.3L900 455.4Z" fill="#002e70" stroke="#002e70"></path><path d="M900 108.7L900 50.9L880 65.7Z" fill="#2641be" stroke="#2641be"></path><path d="M880 65.7L900 50.9L851 37.9Z" fill="#153dab" stroke="#153dab"></path><path d="M827 10.9L881 0L811 0Z" fill="#063998" stroke="#063998"></path><path d="M830 600L880 600L851 580.1Z" fill="#063998" stroke="#063998"></path><path d="M880 600L900 577.1L851 580.1Z" fill="#4b45e4" stroke="#4b45e4"></path><path d="M900 50.9L881 0L851 37.9Z" fill="#063998" stroke="#063998"></path><path d="M880 600L900 600L900 577.1Z" fill="#2641be" stroke="#2641be"></path><path d="M900 50.9L900 0L881 0Z" fill="#002148" stroke="#002148"></path></g></svg>