<svg id="visual" viewBox="0 0 450 900" width="450" height="900" xmlns="http://www.w3.org/2000/svg" xmlns:xlink="http://www.w3.org/1999/xlink" version="1.1"><g stroke-width="1" stroke-linejoin="bevel"><path d="M235 473.3L209 405.8L200.8 467.3Z" fill="#3843d1" stroke="#3843d1"></path><path d="M235 473.3L259.3 429.8L209 405.8Z" fill="#3843d1" stroke="#3843d1"></path><path d="M259.3 429.8L214 402L209 405.8Z" fill="#2641be" stroke="#2641be"></path><path d="M209 405.8L170.8 482L200.8 467.3Z" fill="#4b45e4" stroke="#4b45e4"></path><path d="M200.8 467.3L245.3 543.5L235 473.3Z" fill="#4b45e4" stroke="#4b45e4"></path><path d="M293.5 516.3L302.5 498L235 473.3Z" fill="#002e70" stroke="#002e70"></path><path d="M235 473.3L302.5 498L259.3 429.8Z" fill="#063998" stroke="#063998"></path><path d="M302.5 498L323.3 430L259.3 429.8Z" fill="#2641be" stroke="#2641be"></path><path d="M259.3 429.8L296.3 361.5L214 402Z" fill="#003484" stroke="#003484"></path><path d="M245.3 543.5L293.5 516.3L235 473.3Z" fill="#4b45e4" stroke="#4b45e4"></path><path d="M323.3 430L296.3 361.5L259.3 429.8Z" fill="#3843d1" stroke="#3843d1"></path><path d="M170.8 482L245.3 543.5L200.8 467.3Z" fill="#00285c" stroke="#00285c"></path><path d="M214 402L140.8 364.5L209 405.8Z" fill="#002e70" stroke="#002e70"></path><path d="M209 405.8L95.5 423.8L170.8 482Z" fill="#4b45e4" stroke="#4b45e4"></path><path d="M172 321.3L140.8 364.5L214 402Z" fill="#2641be" stroke="#2641be"></path><path d="M245.3 543.5L291.3 527.3L293.5 516.3Z" fill="#3843d1" stroke="#3843d1"></path><path d="M293.5 516.3L319.5 527.5L302.5 498Z" fill="#003484" stroke="#003484"></path><path d="M96.5 474L145.8 531.5L170.8 482Z" fill="#001a35" stroke="#001a35"></path><path d="M170.8 482L145.8 531.5L245.3 543.5Z" fill="#153dab" stroke="#153dab"></path><path d="M140.8 364.5L95.5 423.8L209 405.8Z" fill="#2641be" stroke="#2641be"></path><path d="M296.3 361.5L244 315.5L214 402Z" fill="#153dab" stroke="#153dab"></path><path d="M140.8 364.5L153.5 289.3L122.8 369.8Z" fill="#2641be" stroke="#2641be"></path><path d="M244 315.5L172 321.3L214 402Z" fill="#003484" stroke="#003484"></path><path d="M122.8 369.8L95.5 423.8L140.8 364.5Z" fill="#063998" stroke="#063998"></path><path d="M270 569.5L319.5 527.5L291.3 527.3Z" fill="#003484" stroke="#003484"></path><path d="M291.3 527.3L319.5 527.5L293.5 516.3Z" fill="#002148" stroke="#002148"></path><path d="M302.5 498L365.8 455L323.3 430Z" fill="#002e70" stroke="#002e70"></path><path d="M95.5 423.8L96.5 474L170.8 482Z" fill="#153dab" stroke="#153dab"></path><path d="M245.3 543.5L270 569.5L291.3 527.3Z" fill="#063998" stroke="#063998"></path><path d="M211 635.8L270 569.5L245.3 543.5Z" fill="#063998" stroke="#063998"></path><path d="M319.5 527.5L365.8 455L302.5 498Z" fill="#4b45e4" stroke="#4b45e4"></path><path d="M323.3 430L362.5 371.5L296.3 361.5Z" fill="#003484" stroke="#003484"></path><path d="M95.5 423.8L76.5 462.3L96.5 474Z" fill="#153dab" stroke="#153dab"></path><path d="M96.5 474L107.3 537.3L145.8 531.5Z" fill="#002e70" stroke="#002e70"></path><path d="M75.5 510.5L107.3 537.3L96.5 474Z" fill="#00285c" stroke="#00285c"></path><path d="M145.8 531.5L135.8 571.8L245.3 543.5Z" fill="#153dab" stroke="#153dab"></path><path d="M67.5 380.5L71.3 427.8L95.5 423.8Z" fill="#063998" stroke="#063998"></path><path d="M95.5 423.8L71.3 427.8L76.5 462.3Z" fill="#001a35" stroke="#001a35"></path><path d="M365.8 455L362.5 371.5L323.3 430Z" fill="#001a35" stroke="#001a35"></path><path d="M296.3 361.5L325.5 302.3L244 315.5Z" fill="#2641be" stroke="#2641be"></path><path d="M107.3 537.3L135.8 571.8L145.8 531.5Z" fill="#4b45e4" stroke="#4b45e4"></path><path d="M244 315.5L178.8 281.3L172 321.3Z" fill="#002148" stroke="#002148"></path><path d="M172 321.3L153.5 289.3L140.8 364.5Z" fill="#00285c" stroke="#00285c"></path><path d="M122.8 369.8L67.5 380.5L95.5 423.8Z" fill="#3843d1" stroke="#3843d1"></path><path d="M234.3 247.3L178.8 281.3L244 315.5Z" fill="#002148" stroke="#002148"></path><path d="M76.5 462.3L75.5 510.5L96.5 474Z" fill="#4b45e4" stroke="#4b45e4"></path><path d="M107.3 537.3L72.3 554.5L135.8 571.8Z" fill="#4b45e4" stroke="#4b45e4"></path><path d="M53.3 446L75.5 510.5L76.5 462.3Z" fill="#001a35" stroke="#001a35"></path><path d="M178.8 281.3L153.5 289.3L172 321.3Z" fill="#153dab" stroke="#153dab"></path><path d="M319.5 527.5L386.8 470.3L365.8 455Z" fill="#2641be" stroke="#2641be"></path><path d="M421.8 390.8L376.5 364.8L362.5 371.5Z" fill="#063998" stroke="#063998"></path><path d="M52.3 313.5L67.5 380.5L122.8 369.8Z" fill="#063998" stroke="#063998"></path><path d="M71.3 427.8L53.3 446L76.5 462.3Z" fill="#4b45e4" stroke="#4b45e4"></path><path d="M421.8 390.8L362.5 371.5L365.8 455Z" fill="#3843d1" stroke="#3843d1"></path><path d="M362.5 371.5L325.5 302.3L296.3 361.5Z" fill="#00285c" stroke="#00285c"></path><path d="M0 385.8L53.3 446L71.3 427.8Z" fill="#002e70" stroke="#002e70"></path><path d="M376.5 364.8L325.5 302.3L362.5 371.5Z" fill="#00285c" stroke="#00285c"></path><path d="M178.8 281.3L148.5 268L153.5 289.3Z" fill="#063998" stroke="#063998"></path><path d="M153.5 289.3L52.3 313.5L122.8 369.8Z" fill="#3843d1" stroke="#3843d1"></path><path d="M218.8 221L148.5 268L178.8 281.3Z" fill="#2641be" stroke="#2641be"></path><path d="M0 536.5L72.3 554.5L75.5 510.5Z" fill="#2641be" stroke="#2641be"></path><path d="M75.5 510.5L72.3 554.5L107.3 537.3Z" fill="#3843d1" stroke="#3843d1"></path><path d="M325.5 302.3L234.3 247.3L244 315.5Z" fill="#002148" stroke="#002148"></path><path d="M161.8 654L211 635.8L135.8 571.8Z" fill="#063998" stroke="#063998"></path><path d="M135.8 571.8L211 635.8L245.3 543.5Z" fill="#4b45e4" stroke="#4b45e4"></path><path d="M270 569.5L341.8 622L319.5 527.5Z" fill="#4b45e4" stroke="#4b45e4"></path><path d="M319.5 527.5L387.8 559.5L386.8 470.3Z" fill="#002148" stroke="#002148"></path><path d="M211 635.8L295.3 623.8L270 569.5Z" fill="#001a35" stroke="#001a35"></path><path d="M377.8 585.8L387.8 559.5L319.5 527.5Z" fill="#002e70" stroke="#002e70"></path><path d="M386.8 470.3L421.8 390.8L365.8 455Z" fill="#4b45e4" stroke="#4b45e4"></path><path d="M376.5 364.8L410.8 317.5L325.5 302.3Z" fill="#3843d1" stroke="#3843d1"></path><path d="M450 442L421.8 390.8L386.8 470.3Z" fill="#2641be" stroke="#2641be"></path><path d="M273 679L303.3 631L295.3 623.8Z" fill="#003484" stroke="#003484"></path><path d="M341.8 622L377.8 585.8L319.5 527.5Z" fill="#4b45e4" stroke="#4b45e4"></path><path d="M0 536.5L69.3 582.8L72.3 554.5Z" fill="#2641be" stroke="#2641be"></path><path d="M72.3 554.5L69.3 582.8L135.8 571.8Z" fill="#001a35" stroke="#001a35"></path><path d="M148.5 268L52.3 313.5L153.5 289.3Z" fill="#3843d1" stroke="#3843d1"></path><path d="M67.5 380.5L0 385.8L71.3 427.8Z" fill="#00285c" stroke="#00285c"></path><path d="M341.8 622L270 569.5L295.3 623.8Z" fill="#3843d1" stroke="#3843d1"></path><path d="M303.3 631L341.8 622L295.3 623.8Z" fill="#3843d1" stroke="#3843d1"></path><path d="M264 208.8L218.8 221L234.3 247.3Z" fill="#002148" stroke="#002148"></path><path d="M234.3 247.3L218.8 221L178.8 281.3Z" fill="#2641be" stroke="#2641be"></path><path d="M148.5 268L39.3 277.3L52.3 313.5Z" fill="#001122" stroke="#001122"></path><path d="M421.8 390.8L410.8 317.5L376.5 364.8Z" fill="#063998" stroke="#063998"></path><path d="M325.5 302.3L264 208.8L234.3 247.3Z" fill="#002148" stroke="#002148"></path><path d="M121.5 651.8L161.8 654L135.8 571.8Z" fill="#002148" stroke="#002148"></path><path d="M259.3 682.3L273 679L295.3 623.8Z" fill="#001a35" stroke="#001a35"></path><path d="M450 516.3L386.8 470.3L387.8 559.5Z" fill="#2641be" stroke="#2641be"></path><path d="M450 516.3L450 442L386.8 470.3Z" fill="#001122" stroke="#001122"></path><path d="M421.8 390.8L450 333.5L410.8 317.5Z" fill="#2641be" stroke="#2641be"></path><path d="M0 345.5L0 385.8L67.5 380.5Z" fill="#001a35" stroke="#001a35"></path><path d="M53.3 446L0 495L75.5 510.5Z" fill="#063998" stroke="#063998"></path><path d="M0 385.8L0 495L53.3 446Z" fill="#153dab" stroke="#153dab"></path><path d="M0 495L0 504.3L75.5 510.5Z" fill="#00285c" stroke="#00285c"></path><path d="M341.8 622L384.5 616.8L377.8 585.8Z" fill="#153dab" stroke="#153dab"></path><path d="M303.3 631L343.5 639L341.8 622Z" fill="#2641be" stroke="#2641be"></path><path d="M273 679L343.5 639L303.3 631Z" fill="#153dab" stroke="#153dab"></path><path d="M359.5 192.8L264 208.8L325.5 302.3Z" fill="#001a35" stroke="#001a35"></path><path d="M450 442L450 377.8L421.8 390.8Z" fill="#2641be" stroke="#2641be"></path><path d="M83.5 643L121.5 651.8L135.8 571.8Z" fill="#153dab" stroke="#153dab"></path><path d="M83.5 643L135.8 571.8L69.3 582.8Z" fill="#001122" stroke="#001122"></path><path d="M450 613.8L387.8 559.5L377.8 585.8Z" fill="#002148" stroke="#002148"></path><path d="M450 522.5L450 516.3L387.8 559.5Z" fill="#4b45e4" stroke="#4b45e4"></path><path d="M343.5 639L384.5 616.8L341.8 622Z" fill="#2641be" stroke="#2641be"></path><path d="M450 613.8L450 522.5L387.8 559.5Z" fill="#003484" stroke="#003484"></path><path d="M52.3 313.5L0 345.5L67.5 380.5Z" fill="#063998" stroke="#063998"></path><path d="M0 504.3L0 536.5L75.5 510.5Z" fill="#3843d1" stroke="#3843d1"></path><path d="M98.3 218L39.3 277.3L148.5 268Z" fill="#002148" stroke="#002148"></path><path d="M52.3 313.5L0 276L0 345.5Z" fill="#001122" stroke="#001122"></path><path d="M259.3 682.3L211 635.8L166.8 706.3Z" fill="#063998" stroke="#063998"></path><path d="M259.3 682.3L295.3 623.8L211 635.8Z" fill="#00285c" stroke="#00285c"></path><path d="M450 653L450 613.8L384.5 616.8Z" fill="#3843d1" stroke="#3843d1"></path><path d="M264 208.8L239.3 194L218.8 221Z" fill="#001122" stroke="#001122"></path><path d="M218.8 221L195.8 193.8L148.5 268Z" fill="#153dab" stroke="#153dab"></path><path d="M166.8 706.3L211 635.8L161.8 654Z" fill="#001122" stroke="#001122"></path><path d="M239.3 194L195.8 193.8L218.8 221Z" fill="#001122" stroke="#001122"></path><path d="M0 611.8L83.5 643L69.3 582.8Z" fill="#153dab" stroke="#153dab"></path><path d="M450 377.8L450 333.5L421.8 390.8Z" fill="#001a35" stroke="#001a35"></path><path d="M300.3 161.5L244 174L264 208.8Z" fill="#003484" stroke="#003484"></path><path d="M450 333.5L450 330.3L410.8 317.5Z" fill="#063998" stroke="#063998"></path><path d="M195.8 193.8L98.3 218L148.5 268Z" fill="#002e70" stroke="#002e70"></path><path d="M0 697L85.3 658L83.5 643Z" fill="#3843d1" stroke="#3843d1"></path><path d="M83.5 643L85.3 658L121.5 651.8Z" fill="#002148" stroke="#002148"></path><path d="M121.5 651.8L166.8 706.3L161.8 654Z" fill="#063998" stroke="#063998"></path><path d="M264 208.8L244 174L239.3 194Z" fill="#001a35" stroke="#001a35"></path><path d="M239.3 194L244 174L195.8 193.8Z" fill="#002e70" stroke="#002e70"></path><path d="M99.5 163.5L89.5 177.8L98.3 218Z" fill="#002e70" stroke="#002e70"></path><path d="M371.5 197L325.5 302.3L395.8 200Z" fill="#001122" stroke="#001122"></path><path d="M75.3 722.3L166.8 706.3L121.5 651.8Z" fill="#3843d1" stroke="#3843d1"></path><path d="M259.3 682.3L323.5 720.3L273 679Z" fill="#4b45e4" stroke="#4b45e4"></path><path d="M0 235.3L0 276L39.3 277.3Z" fill="#153dab" stroke="#153dab"></path><path d="M39.3 277.3L0 276L52.3 313.5Z" fill="#001122" stroke="#001122"></path><path d="M450 330.3L444.8 266.3L410.8 317.5Z" fill="#001122" stroke="#001122"></path><path d="M371.5 197L359.5 192.8L325.5 302.3Z" fill="#4b45e4" stroke="#4b45e4"></path><path d="M0 536.5L0 611.8L69.3 582.8Z" fill="#3843d1" stroke="#3843d1"></path><path d="M85.3 658L75.3 722.3L121.5 651.8Z" fill="#3843d1" stroke="#3843d1"></path><path d="M395.8 200L325.5 302.3L410.8 317.5Z" fill="#001122" stroke="#001122"></path><path d="M395.8 200L368.8 193.8L371.5 197Z" fill="#2641be" stroke="#2641be"></path><path d="M371.5 197L368.8 193.8L359.5 192.8Z" fill="#153dab" stroke="#153dab"></path><path d="M359.5 192.8L300.3 161.5L264 208.8Z" fill="#003484" stroke="#003484"></path><path d="M384.5 616.8L450 613.8L377.8 585.8Z" fill="#3843d1" stroke="#3843d1"></path><path d="M450 653L384.5 616.8L343.5 639Z" fill="#3843d1" stroke="#3843d1"></path><path d="M295.3 144.8L300.3 161.5L367.5 116.5Z" fill="#001a35" stroke="#001a35"></path><path d="M99.5 163.5L98.3 218L195.8 193.8Z" fill="#3843d1" stroke="#3843d1"></path><path d="M98.3 218L0 235.3L39.3 277.3Z" fill="#002e70" stroke="#002e70"></path><path d="M99.5 163.5L104.3 124.8L94.3 149.5Z" fill="#153dab" stroke="#153dab"></path><path d="M444.8 266.3L395.8 200L410.8 317.5Z" fill="#3843d1" stroke="#3843d1"></path><path d="M367.5 116.5L300.3 161.5L359.5 192.8Z" fill="#002e70" stroke="#002e70"></path><path d="M242 772.3L323.5 720.3L259.3 682.3Z" fill="#063998" stroke="#063998"></path><path d="M273 679L323.5 720.3L343.5 639Z" fill="#063998" stroke="#063998"></path><path d="M99.5 163.5L195.8 193.8L182.8 109.5Z" fill="#001a35" stroke="#001a35"></path><path d="M0 187.8L0 235.3L98.3 218Z" fill="#3843d1" stroke="#3843d1"></path><path d="M0 187.8L98.3 218L89.5 177.8Z" fill="#001122" stroke="#001122"></path><path d="M367.5 116.5L359.5 192.8L368.8 193.8Z" fill="#003484" stroke="#003484"></path><path d="M300.3 161.5L295.3 144.8L244 174Z" fill="#001122" stroke="#001122"></path><path d="M443.8 726.3L450 653L343.5 639Z" fill="#002e70" stroke="#002e70"></path><path d="M182.8 109.5L195.8 193.8L212 104.5Z" fill="#153dab" stroke="#153dab"></path><path d="M99.5 163.5L94.3 149.5L89.5 177.8Z" fill="#3843d1" stroke="#3843d1"></path><path d="M0 697L75.3 722.3L85.3 658Z" fill="#002e70" stroke="#002e70"></path><path d="M213.8 775.5L242 772.3L259.3 682.3Z" fill="#063998" stroke="#063998"></path><path d="M212 104.5L195.8 193.8L244 174Z" fill="#063998" stroke="#063998"></path><path d="M213.8 775.5L259.3 682.3L166.8 706.3Z" fill="#002e70" stroke="#002e70"></path><path d="M323.5 720.3L443.8 726.3L343.5 639Z" fill="#153dab" stroke="#153dab"></path><path d="M295.3 144.8L212 104.5L244 174Z" fill="#2641be" stroke="#2641be"></path><path d="M182.8 109.5L104.3 124.8L99.5 163.5Z" fill="#002148" stroke="#002148"></path><path d="M0 136.5L0 187.8L89.5 177.8Z" fill="#063998" stroke="#063998"></path><path d="M0 136.5L89.5 177.8L94.3 149.5Z" fill="#063998" stroke="#063998"></path><path d="M121.5 791.8L213.8 775.5L166.8 706.3Z" fill="#00285c" stroke="#00285c"></path><path d="M0 611.8L0 697L83.5 643Z" fill="#001a35" stroke="#001a35"></path><path d="M75.3 722.3L121.5 791.8L166.8 706.3Z" fill="#2641be" stroke="#2641be"></path><path d="M444.8 266.3L450 174L395.8 200Z" fill="#2641be" stroke="#2641be"></path><path d="M395.8 200L367.5 116.5L368.8 193.8Z" fill="#3843d1" stroke="#3843d1"></path><path d="M295.3 144.8L257.3 63.3L212 104.5Z" fill="#153dab" stroke="#153dab"></path><path d="M450 330.3L450 174L444.8 266.3Z" fill="#00285c" stroke="#00285c"></path><path d="M0 724.3L60.5 750.5L75.3 722.3Z" fill="#001a35" stroke="#001a35"></path><path d="M403.8 106.3L367.5 116.5L395.8 200Z" fill="#2641be" stroke="#2641be"></path><path d="M44.3 766.5L81.5 770.3L60.5 750.5Z" fill="#153dab" stroke="#153dab"></path><path d="M60.5 750.5L81.5 770.3L75.3 722.3Z" fill="#3843d1" stroke="#3843d1"></path><path d="M219.8 823.8L237.3 800.5L213.8 775.5Z" fill="#3843d1" stroke="#3843d1"></path><path d="M213.8 775.5L237.3 800.5L242 772.3Z" fill="#002148" stroke="#002148"></path><path d="M242 772.3L338.5 790.5L323.5 720.3Z" fill="#002148" stroke="#002148"></path><path d="M413.8 766.5L443.8 726.3L323.5 720.3Z" fill="#002148" stroke="#002148"></path><path d="M0 697L0 724.3L75.3 722.3Z" fill="#153dab" stroke="#153dab"></path><path d="M182.8 109.5L120.8 91.3L104.3 124.8Z" fill="#2641be" stroke="#2641be"></path><path d="M104.3 124.8L0 136.5L94.3 149.5Z" fill="#3843d1" stroke="#3843d1"></path><path d="M161.5 8.3L120.8 91.3L182.8 109.5Z" fill="#001122" stroke="#001122"></path><path d="M161.5 8.3L182.8 109.5L212 104.5Z" fill="#3843d1" stroke="#3843d1"></path><path d="M81.5 770.3L121.5 791.8L75.3 722.3Z" fill="#002e70" stroke="#002e70"></path><path d="M237.3 800.5L338.5 790.5L242 772.3Z" fill="#2641be" stroke="#2641be"></path><path d="M403.8 106.3L334.5 83.3L367.5 116.5Z" fill="#2641be" stroke="#2641be"></path><path d="M367.5 116.5L334.5 83.3L295.3 144.8Z" fill="#153dab" stroke="#153dab"></path><path d="M0 724.3L44.3 766.5L60.5 750.5Z" fill="#001a35" stroke="#001a35"></path><path d="M81.5 770.3L49.3 807.8L121.5 791.8Z" fill="#3843d1" stroke="#3843d1"></path><path d="M0 52.3L0 136.5L104.3 124.8Z" fill="#002e70" stroke="#002e70"></path><path d="M334.5 83.3L257.3 63.3L295.3 144.8Z" fill="#4b45e4" stroke="#4b45e4"></path><path d="M450 174L403.8 106.3L395.8 200Z" fill="#00285c" stroke="#00285c"></path><path d="M338.5 790.5L413.8 766.5L323.5 720.3Z" fill="#4b45e4" stroke="#4b45e4"></path><path d="M450 174L450 129.8L403.8 106.3Z" fill="#4b45e4" stroke="#4b45e4"></path><path d="M121.5 791.8L219.8 823.8L213.8 775.5Z" fill="#002e70" stroke="#002e70"></path><path d="M237.3 800.5L302.5 845.8L338.5 790.5Z" fill="#153dab" stroke="#153dab"></path><path d="M233 841.8L241 832.5L219.8 823.8Z" fill="#153dab" stroke="#153dab"></path><path d="M219.8 823.8L241 832.5L237.3 800.5Z" fill="#002148" stroke="#002148"></path><path d="M450 834.5L450 775.3L413.8 766.5Z" fill="#003484" stroke="#003484"></path><path d="M233 841.8L219.8 823.8L204.8 900Z" fill="#4b45e4" stroke="#4b45e4"></path><path d="M450 129.8L444.8 112.5L403.8 106.3Z" fill="#4b45e4" stroke="#4b45e4"></path><path d="M256.3 0L257.3 63.3L327.5 0Z" fill="#002148" stroke="#002148"></path><path d="M204.8 900L219.8 823.8L149.5 900Z" fill="#063998" stroke="#063998"></path><path d="M241 832.5L302.5 845.8L237.3 800.5Z" fill="#063998" stroke="#063998"></path><path d="M423.8 844.8L413.8 766.5L338.5 790.5Z" fill="#153dab" stroke="#153dab"></path><path d="M413.8 766.5L450 775.3L443.8 726.3Z" fill="#00285c" stroke="#00285c"></path><path d="M443.8 726.3L450 775.3L450 653Z" fill="#00285c" stroke="#00285c"></path><path d="M0 786.5L49.3 807.8L44.3 766.5Z" fill="#063998" stroke="#063998"></path><path d="M44.3 766.5L49.3 807.8L81.5 770.3Z" fill="#4b45e4" stroke="#4b45e4"></path><path d="M0 724.3L0 786.5L44.3 766.5Z" fill="#00285c" stroke="#00285c"></path><path d="M233 841.8L302.5 845.8L241 832.5Z" fill="#002148" stroke="#002148"></path><path d="M255 0L229 13.3L257.3 63.3Z" fill="#3843d1" stroke="#3843d1"></path><path d="M257.3 63.3L229 13.3L212 104.5Z" fill="#001122" stroke="#001122"></path><path d="M120.8 91.3L0 52.3L104.3 124.8Z" fill="#00285c" stroke="#00285c"></path><path d="M255 0L257.3 63.3L256.3 0Z" fill="#001122" stroke="#001122"></path><path d="M229 13.3L161.5 8.3L212 104.5Z" fill="#3843d1" stroke="#3843d1"></path><path d="M257.3 63.3L334.5 83.3L327.5 0Z" fill="#4b45e4" stroke="#4b45e4"></path><path d="M229 13.3L255 0L161.5 8.3Z" fill="#001a35" stroke="#001a35"></path><path d="M364.8 0L334.5 83.3L403.8 106.3Z" fill="#002148" stroke="#002148"></path><path d="M450 129.8L450 60.5L444.8 112.5Z" fill="#3843d1" stroke="#3843d1"></path><path d="M444.8 112.5L450 60.5L403.8 106.3Z" fill="#00285c" stroke="#00285c"></path><path d="M19.3 26.3L0 52.3L120.8 91.3Z" fill="#3843d1" stroke="#3843d1"></path><path d="M255 0L139.5 0L161.5 8.3Z" fill="#063998" stroke="#063998"></path><path d="M161.5 8.3L139.5 0L120.8 91.3Z" fill="#4b45e4" stroke="#4b45e4"></path><path d="M139.5 0L128.8 0L120.8 91.3Z" fill="#153dab" stroke="#153dab"></path><path d="M364.8 0L327.5 0L334.5 83.3Z" fill="#001122" stroke="#001122"></path><path d="M378.8 900L423.8 844.8L338.5 790.5Z" fill="#063998" stroke="#063998"></path><path d="M423.8 844.8L450 834.5L413.8 766.5Z" fill="#3843d1" stroke="#3843d1"></path><path d="M128.8 0L19.3 26.3L120.8 91.3Z" fill="#003484" stroke="#003484"></path><path d="M450 60.5L364.8 0L403.8 106.3Z" fill="#003484" stroke="#003484"></path><path d="M233 841.8L250 900L302.5 845.8Z" fill="#003484" stroke="#003484"></path><path d="M302.5 845.8L378.8 900L338.5 790.5Z" fill="#063998" stroke="#063998"></path><path d="M149.5 900L219.8 823.8L121.5 791.8Z" fill="#4b45e4" stroke="#4b45e4"></path><path d="M149.5 900L121.5 791.8L99.3 900Z" fill="#003484" stroke="#003484"></path><path d="M204.8 900L250 900L233 841.8Z" fill="#063998" stroke="#063998"></path><path d="M300.3 900L311.3 894.8L302.5 845.8Z" fill="#003484" stroke="#003484"></path><path d="M423.8 844.8L450 872.8L450 834.5Z" fill="#3843d1" stroke="#3843d1"></path><path d="M99.3 900L121.5 791.8L49.3 807.8Z" fill="#153dab" stroke="#153dab"></path><path d="M450 60.5L450 30.3L364.8 0Z" fill="#00285c" stroke="#00285c"></path><path d="M250 900L300.3 900L302.5 845.8Z" fill="#003484" stroke="#003484"></path><path d="M311.3 894.8L335.5 900L302.5 845.8Z" fill="#2641be" stroke="#2641be"></path><path d="M300.3 900L335.5 900L311.3 894.8Z" fill="#001a35" stroke="#001a35"></path><path d="M0 882.8L99.3 900L49.3 807.8Z" fill="#2641be" stroke="#2641be"></path><path d="M128.8 0L18.3 0L19.3 26.3Z" fill="#003484" stroke="#003484"></path><path d="M19.3 26.3L0 0L0 52.3Z" fill="#003484" stroke="#003484"></path><path d="M335.5 900L378.8 900L302.5 845.8Z" fill="#00285c" stroke="#00285c"></path><path d="M378.8 900L450 872.8L423.8 844.8Z" fill="#3843d1" stroke="#3843d1"></path><path d="M18.3 0L0 0L19.3 26.3Z" fill="#3843d1" stroke="#3843d1"></path><path d="M450 30.3L450 0L364.8 0Z" fill="#4b45e4" stroke="#4b45e4"></path><path d="M0 786.5L0 882.8L49.3 807.8Z" fill="#002e70" stroke="#002e70"></path><path d="M0 882.8L0 900L99.3 900Z" fill="#001122" stroke="#001122"></path><path d="M378.8 900L450 900L450 872.8Z" fill="#003484" stroke="#003484"></path></g></svg>
